<?xml version="1.0" encoding="UTF-8" standalone="no"?>
<!DOCTYPE svg PUBLIC "-//W3C//DTD SVG 1.0//EN" "http://www.w3.org/TR/2001/PR-SVG-20010719/DTD/svg10.dtd">
<svg width="41cm" height="41cm" viewBox="58 -94 815 805" xmlns="http://www.w3.org/2000/svg" xmlns:xlink="http://www.w3.org/1999/xlink">
  <g>
    <rect style="fill: #ffffff" x="59" y="348" width="74.2" height="36"/>
    <rect style="fill: none; fill-opacity:0; stroke-width: 2; stroke: #000000" x="59" y="348" width="74.2" height="36"/>
    <text font-size="12.8" style="fill: #000000;text-anchor:middle;font-family:monospace;font-style:normal;font-weight:normal" x="96.1" y="369.2">Person</text>
  </g>
  <g>
    <rect style="fill: #ffffff" x="537" y="345" width="112.7" height="36"/>
    <rect style="fill: none; fill-opacity:0; stroke-width: 2; stroke: #000000" x="537" y="345" width="112.7" height="36"/>
    <text font-size="12.8" style="fill: #000000;text-anchor:middle;font-family:monospace;font-style:normal;font-weight:normal" x="593.35" y="366.2">Eigenschaft</text>
  </g>
  <g>
    <rect style="fill: #ffffff" x="597" y="438" width="89.6" height="36"/>
    <rect style="fill: none; fill-opacity:0; stroke-width: 2; stroke: #000000" x="597" y="438" width="89.6" height="36"/>
    <text font-size="12.8" style="fill: #000000;text-anchor:middle;font-family:monospace;font-style:normal;font-weight:normal" x="641.8" y="459.2">Ereignis</text>
  </g>
  <g>
    <rect style="fill: #ffffff" x="526" y="-3" width="97.3" height="36"/>
    <rect style="fill: none; fill-opacity:0; stroke-width: 2; stroke: #000000" x="526" y="-3" width="97.3" height="36"/>
    <text font-size="12.8" style="fill: #000000;text-anchor:middle;font-family:monospace;font-style:normal;font-weight:normal" x="574.65" y="18.2">Beziehung</text>
  </g>
  <g>
    <rect style="fill: #ffffff" x="716" y="586" width="81.9" height="36"/>
    <rect style="fill: none; fill-opacity:0; stroke-width: 2; stroke: #000000" x="716" y="586" width="81.9" height="36"/>
    <text font-size="12.8" style="fill: #000000;text-anchor:middle;font-family:monospace;font-style:normal;font-weight:normal" x="756.95" y="607.2">Adresse</text>
  </g>
  <g>
    <rect style="fill: #ffffff" x="266" y="121" width="151.2" height="36"/>
    <rect style="fill: none; fill-opacity:0; stroke-width: 2; stroke: #000000" x="266" y="121" width="151.2" height="36"/>
    <text font-size="12.8" style="fill: #000000;text-anchor:middle;font-family:monospace;font-style:normal;font-weight:normal" x="341.6" y="142.2">Person Beziehung</text>
  </g>
  <g>
    <polygon style="fill: #ffffff" points="155,204.93 186.55,186 218.1,204.93 186.55,223.86 "/>
    <polygon style="fill: none; fill-opacity:0; stroke-width: 2; stroke: #000000" points="155,204.93 186.55,186 218.1,204.93 186.55,223.86 "/>
    <text font-size="12.8" style="fill: #000000;text-anchor:end;font-family:monospace;font-style:normal;font-weight:normal" x="149" y="198.93">1</text>
    <text font-size="12.8" style="fill: #000000;text-anchor:start;font-family:monospace;font-style:normal;font-weight:normal" x="224.1" y="198.93">n</text>
    <text font-size="12.8" style="fill: #000000;text-anchor:middle;font-family:monospace;font-style:normal;font-weight:normal" x="186.55" y="208.13">hat</text>
  </g>
  <g>
    <polygon style="fill: #ffffff" points="434,75.93 465.55,57 497.1,75.93 465.55,94.86 "/>
    <polygon style="fill: none; fill-opacity:0; stroke-width: 2; stroke: #000000" points="434,75.93 465.55,57 497.1,75.93 465.55,94.86 "/>
    <text font-size="12.8" style="fill: #000000;text-anchor:end;font-family:monospace;font-style:normal;font-weight:normal" x="428" y="69.93">n</text>
    <text font-size="12.8" style="fill: #000000;text-anchor:start;font-family:monospace;font-style:normal;font-weight:normal" x="503.1" y="69.93">1</text>
    <text font-size="12.8" style="fill: #000000;text-anchor:middle;font-family:monospace;font-style:normal;font-weight:normal" x="465.55" y="79.13">hat</text>
  </g>
  <line style="fill: none; fill-opacity:0; stroke-width: 2; stroke: #000000" x1="103.049" y1="346.997" x2="155" y2="204.93"/>
  <line style="fill: none; fill-opacity:0; stroke-width: 2; stroke: #000000" x1="306.006" y1="158.002" x2="218.1" y2="204.93"/>
  <line style="fill: none; fill-opacity:0; stroke-width: 2; stroke: #000000" x1="369.415" y1="120.014" x2="434" y2="75.93"/>
  <line style="fill: none; fill-opacity:0; stroke-width: 2; stroke: #000000" x1="550.472" y1="33.996" x2="497.1" y2="75.93"/>
  <g>
    <polygon style="fill: #ffffff" points="305,326.93 336.55,308 368.1,326.93 336.55,345.86 "/>
    <polygon style="fill: none; fill-opacity:0; stroke-width: 2; stroke: #000000" points="305,326.93 336.55,308 368.1,326.93 336.55,345.86 "/>
    <text font-size="12.8" style="fill: #000000;text-anchor:end;font-family:monospace;font-style:normal;font-weight:normal" x="299" y="320.93">1</text>
    <text font-size="12.8" style="fill: #000000;text-anchor:start;font-family:monospace;font-style:normal;font-weight:normal" x="374.1" y="320.93">n</text>
    <text font-size="12.8" style="fill: #000000;text-anchor:middle;font-family:monospace;font-style:normal;font-weight:normal" x="336.55" y="330.13">hat</text>
  </g>
  <line style="fill: none; fill-opacity:0; stroke-width: 2; stroke: #000000" x1="134.204" y1="358.873" x2="305" y2="326.93"/>
  <g>
    <polygon style="fill: #ffffff" points="304,384.93 335.55,366 367.1,384.93 335.55,403.86 "/>
    <polygon style="fill: none; fill-opacity:0; stroke-width: 2; stroke: #000000" points="304,384.93 335.55,366 367.1,384.93 335.55,403.86 "/>
    <text font-size="12.8" style="fill: #000000;text-anchor:end;font-family:monospace;font-style:normal;font-weight:normal" x="298" y="378.93">1</text>
    <text font-size="12.8" style="fill: #000000;text-anchor:start;font-family:monospace;font-style:normal;font-weight:normal" x="373.1" y="378.93">n</text>
    <text font-size="12.8" style="fill: #000000;text-anchor:middle;font-family:monospace;font-style:normal;font-weight:normal" x="335.55" y="388.13">hat</text>
  </g>
  <line style="fill: none; fill-opacity:0; stroke-width: 2; stroke: #000000" x1="134.193" y1="369.468" x2="304" y2="384.93"/>
  <line style="fill: none; fill-opacity:0; stroke-width: 2; stroke: #000000" x1="536" y1="368.559" x2="367.1" y2="384.93"/>
  <g>
    <polygon style="fill: #ffffff" points="306,440.93 337.55,422 369.1,440.93 337.55,459.86 "/>
    <polygon style="fill: none; fill-opacity:0; stroke-width: 2; stroke: #000000" points="306,440.93 337.55,422 369.1,440.93 337.55,459.86 "/>
    <text font-size="12.8" style="fill: #000000;text-anchor:end;font-family:monospace;font-style:normal;font-weight:normal" x="300" y="434.93">1</text>
    <text font-size="12.8" style="fill: #000000;text-anchor:start;font-family:monospace;font-style:normal;font-weight:normal" x="375.1" y="434.93">n</text>
    <text font-size="12.8" style="fill: #000000;text-anchor:middle;font-family:monospace;font-style:normal;font-weight:normal" x="337.55" y="444.13">hat</text>
  </g>
  <line style="fill: none; fill-opacity:0; stroke-width: 2; stroke: #000000" x1="134.188" y1="379.597" x2="306" y2="440.93"/>
  <line style="fill: none; fill-opacity:0; stroke-width: 2; stroke: #000000" x1="596.528" y1="453.498" x2="369.1" y2="440.93"/>
  <g>
    <polygon style="fill: #ffffff" points="131.2,117.93 162.75,99 194.3,117.93 162.75,136.86 "/>
    <polygon style="fill: none; fill-opacity:0; stroke-width: 2; stroke: #000000" points="131.2,117.93 162.75,99 194.3,117.93 162.75,136.86 "/>
    <text font-size="12.8" style="fill: #000000;text-anchor:end;font-family:monospace;font-style:normal;font-weight:normal" x="125.2" y="111.93">1</text>
    <text font-size="12.8" style="fill: #000000;text-anchor:start;font-family:monospace;font-style:normal;font-weight:normal" x="200.3" y="111.93">n</text>
    <text font-size="12.8" style="fill: #000000;text-anchor:middle;font-family:monospace;font-style:normal;font-weight:normal" x="162.75" y="121.13">hat</text>
  </g>
  <g>
    <rect style="fill: #ffffff" x="288.5" y="12.5002" width="66.5" height="36"/>
    <rect style="fill: none; fill-opacity:0; stroke-width: 2; stroke: #000000" x="288.5" y="12.5002" width="66.5" height="36"/>
    <text font-size="12.8" style="fill: #000000;text-anchor:middle;font-family:monospace;font-style:normal;font-weight:normal" x="321.75" y="33.7002">Konto</text>
  </g>
  <line style="fill: none; fill-opacity:0; stroke-width: 2; stroke: #000000" x1="98.7822" y1="347.043" x2="131.2" y2="117.93"/>
  <line style="fill: none; fill-opacity:0; stroke-width: 2; stroke: #000000" x1="194.3" y1="117.93" x2="294.041" y2="49.5081"/>
  <g>
    <rect style="fill: #ffffff" x="512" y="-93" width="74.2" height="36"/>
    <rect style="fill: none; fill-opacity:0; stroke-width: 2; stroke: #000000" x="512" y="-93" width="74.2" height="36"/>
    <text font-size="12.8" style="fill: #000000;text-anchor:middle;font-family:monospace;font-style:normal;font-weight:normal" x="549.1" y="-71.8">Dienst</text>
  </g>
  <g>
    <polygon style="fill: #ffffff" points="418,-16.07 449.55,-35 481.1,-16.07 449.55,2.86 "/>
    <polygon style="fill: none; fill-opacity:0; stroke-width: 2; stroke: #000000" points="418,-16.07 449.55,-35 481.1,-16.07 449.55,2.86 "/>
    <text font-size="12.8" style="fill: #000000;text-anchor:end;font-family:monospace;font-style:normal;font-weight:normal" x="412" y="-22.07">n</text>
    <text font-size="12.8" style="fill: #000000;text-anchor:start;font-family:monospace;font-style:normal;font-weight:normal" x="487.1" y="-22.07">1</text>
    <text font-size="12.8" style="fill: #000000;text-anchor:middle;font-family:monospace;font-style:normal;font-weight:normal" x="449.55" y="-12.87">bei</text>
  </g>
  <line style="fill: none; fill-opacity:0; stroke-width: 2; stroke: #000000" x1="355.987" y1="13.9346" x2="418" y2="-16.07"/>
  <line style="fill: none; fill-opacity:0; stroke-width: 2; stroke: #000000" x1="481.1" y1="-16.07" x2="527.169" y2="-55.9945"/>
  <g>
    <polygon style="fill: #ffffff" points="306,498.93 337.55,480 369.1,498.93 337.55,517.86 "/>
    <polygon style="fill: none; fill-opacity:0; stroke-width: 2; stroke: #000000" points="306,498.93 337.55,480 369.1,498.93 337.55,517.86 "/>
    <text font-size="12.8" style="fill: #000000;text-anchor:end;font-family:monospace;font-style:normal;font-weight:normal" x="300" y="492.93">1</text>
    <text font-size="12.8" style="fill: #000000;text-anchor:start;font-family:monospace;font-style:normal;font-weight:normal" x="375.1" y="492.93">n</text>
    <text font-size="12.8" style="fill: #000000;text-anchor:middle;font-family:monospace;font-style:normal;font-weight:normal" x="337.55" y="502.13">hat</text>
  </g>
  <g>
    <rect style="fill: #ffffff" x="661" y="514" width="58.8" height="36"/>
    <rect style="fill: none; fill-opacity:0; stroke-width: 2; stroke: #000000" x="661" y="514" width="58.8" height="36"/>
    <text font-size="12.8" style="fill: #000000;text-anchor:middle;font-family:monospace;font-style:normal;font-weight:normal" x="690.4" y="535.2">Name</text>
  </g>
  <line style="fill: none; fill-opacity:0; stroke-width: 2; stroke: #000000" x1="126.078" y1="384.985" x2="306" y2="498.93"/>
  <line style="fill: none; fill-opacity:0; stroke-width: 2; stroke: #000000" x1="659.994" y1="528.87" x2="369.1" y2="498.93"/>
  <g>
    <rect style="fill: #ffffff" x="491" y="267.5" width="105" height="36"/>
    <rect style="fill: none; fill-opacity:0; stroke-width: 2; stroke: #000000" x="491" y="267.5" width="105" height="36"/>
    <text font-size="12.8" style="fill: #000000;text-anchor:middle;font-family:monospace;font-style:normal;font-weight:normal" x="543.5" y="288.7">Gegenstand</text>
  </g>
  <g>
    <polygon style="fill: #ffffff" points="308,553.43 339.55,534.5 371.1,553.43 339.55,572.36 "/>
    <polygon style="fill: none; fill-opacity:0; stroke-width: 2; stroke: #000000" points="308,553.43 339.55,534.5 371.1,553.43 339.55,572.36 "/>
    <text font-size="12.8" style="fill: #000000;text-anchor:end;font-family:monospace;font-style:normal;font-weight:normal" x="302" y="547.43">1</text>
    <text font-size="12.8" style="fill: #000000;text-anchor:start;font-family:monospace;font-style:normal;font-weight:normal" x="377.1" y="547.43">n</text>
    <text font-size="12.8" style="fill: #000000;text-anchor:middle;font-family:monospace;font-style:normal;font-weight:normal" x="339.55" y="556.63">hat</text>
  </g>
  <line style="fill: none; fill-opacity:0; stroke-width: 2; stroke: #000000" x1="117.582" y1="385.002" x2="308" y2="553.43"/>
  <line style="fill: none; fill-opacity:0; stroke-width: 2; stroke: #000000" x1="715.007" y1="598.503" x2="371.1" y2="553.43"/>
  <line style="fill: none; fill-opacity:0; stroke-width: 2; stroke: #000000" x1="490.004" y1="298.136" x2="368.1" y2="326.93"/>
  <g>
    <rect style="fill: #ffffff" x="290" y="213.5" width="128.1" height="36"/>
    <rect style="fill: none; fill-opacity:0; stroke-width: 2; stroke: #000000" x="290" y="213.5" width="128.1" height="36"/>
    <text font-size="12.8" style="fill: #000000;text-anchor:middle;font-family:monospace;font-style:normal;font-weight:normal" x="354.05" y="234.7">Person Gruppe</text>
  </g>
  <g>
    <polygon style="fill: #ffffff" points="185,284.43 216.55,265.5 248.1,284.43 216.55,303.36 "/>
    <polygon style="fill: none; fill-opacity:0; stroke-width: 2; stroke: #000000" points="185,284.43 216.55,265.5 248.1,284.43 216.55,303.36 "/>
    <text font-size="12.8" style="fill: #000000;text-anchor:end;font-family:monospace;font-style:normal;font-weight:normal" x="179" y="278.43">1</text>
    <text font-size="12.8" style="fill: #000000;text-anchor:start;font-family:monospace;font-style:normal;font-weight:normal" x="254.1" y="278.43">n</text>
    <text font-size="12.8" style="fill: #000000;text-anchor:middle;font-family:monospace;font-style:normal;font-weight:normal" x="216.55" y="287.63">hat</text>
  </g>
  <line style="fill: none; fill-opacity:0; stroke-width: 2; stroke: #000000" x1="116.817" y1="346.992" x2="185" y2="284.43"/>
  <line style="fill: none; fill-opacity:0; stroke-width: 2; stroke: #000000" x1="316.013" y1="250.502" x2="248.1" y2="284.43"/>
  <g>
    <polygon style="fill: #ffffff" points="446,176.43 477.55,157.5 509.1,176.43 477.55,195.36 "/>
    <polygon style="fill: none; fill-opacity:0; stroke-width: 2; stroke: #000000" points="446,176.43 477.55,157.5 509.1,176.43 477.55,195.36 "/>
    <text font-size="12.8" style="fill: #000000;text-anchor:end;font-family:monospace;font-style:normal;font-weight:normal" x="440" y="170.43">n</text>
    <text font-size="12.8" style="fill: #000000;text-anchor:start;font-family:monospace;font-style:normal;font-weight:normal" x="515.1" y="170.43">1</text>
    <text font-size="12.8" style="fill: #000000;text-anchor:middle;font-family:monospace;font-style:normal;font-weight:normal" x="477.55" y="179.63">hat</text>
  </g>
  <line style="fill: none; fill-opacity:0; stroke-width: 2; stroke: #000000" x1="385.77" y1="212.503" x2="446" y2="176.43"/>
  <g>
    <rect style="fill: #ffffff" x="569" y="87.5002" width="74.2" height="36"/>
    <rect style="fill: none; fill-opacity:0; stroke-width: 2; stroke: #000000" x="569" y="87.5002" width="74.2" height="36"/>
    <text font-size="12.8" style="fill: #000000;text-anchor:middle;font-family:monospace;font-style:normal;font-weight:normal" x="606.1" y="108.7">Gruppe</text>
  </g>
  <line style="fill: none; fill-opacity:0; stroke-width: 2; stroke: #000000" x1="580.121" y1="124.497" x2="509.1" y2="176.43"/>
  <g>
    <polygon style="fill: #ffffff" points="544,210.43 575.55,191.5 607.1,210.43 575.55,229.36 "/>
    <polygon style="fill: none; fill-opacity:0; stroke-width: 2; stroke: #000000" points="544,210.43 575.55,191.5 607.1,210.43 575.55,229.36 "/>
    <text font-size="12.8" style="fill: #000000;text-anchor:end;font-family:monospace;font-style:normal;font-weight:normal" x="538" y="204.43">n</text>
    <text font-size="12.8" style="fill: #000000;text-anchor:start;font-family:monospace;font-style:normal;font-weight:normal" x="613.1" y="204.43">1</text>
    <text font-size="12.8" style="fill: #000000;text-anchor:middle;font-family:monospace;font-style:normal;font-weight:normal" x="575.55" y="213.63">hat</text>
  </g>
  <line style="fill: none; fill-opacity:0; stroke-width: 2; stroke: #000000" x1="543.627" y1="266.503" x2="544" y2="210.43"/>
  <line style="fill: none; fill-opacity:0; stroke-width: 2; stroke: #000000" x1="606.281" y1="124.483" x2="607.1" y2="210.43"/>
  <g>
    <rect style="fill: #ffffff" x="774" y="674" width="97.3" height="36"/>
    <rect style="fill: none; fill-opacity:0; stroke-width: 2; stroke: #000000" x="774" y="674" width="97.3" height="36"/>
    <text font-size="12.8" style="fill: #000000;text-anchor:middle;font-family:monospace;font-style:normal;font-weight:normal" x="822.65" y="695.2">Bemerkung</text>
  </g>
  <g>
    <polygon style="fill: #ffffff" points="308,609.93 339.55,591 371.1,609.93 339.55,628.86 "/>
    <polygon style="fill: none; fill-opacity:0; stroke-width: 2; stroke: #000000" points="308,609.93 339.55,591 371.1,609.93 339.55,628.86 "/>
    <text font-size="12.8" style="fill: #000000;text-anchor:end;font-family:monospace;font-style:normal;font-weight:normal" x="302" y="603.93">1</text>
    <text font-size="12.8" style="fill: #000000;text-anchor:start;font-family:monospace;font-style:normal;font-weight:normal" x="377.1" y="603.93">n</text>
    <text font-size="12.8" style="fill: #000000;text-anchor:middle;font-family:monospace;font-style:normal;font-weight:normal" x="339.55" y="613.13">hat</text>
  </g>
  <line style="fill: none; fill-opacity:0; stroke-width: 2; stroke: #000000" x1="112.609" y1="385.005" x2="308" y2="609.93"/>
  <line style="fill: none; fill-opacity:0; stroke-width: 2; stroke: #000000" x1="773.014" y1="682.979" x2="371.1" y2="609.93"/>
</svg>
